{"asset":{"generator":"3D Builder","version":"2.0"},"scene":0,"scenes":[{"nodes":[0,1,2]}],"nodes":[{"mesh":0,"matrix":[1,0,0,0,0,-1.1920928955078125E-7,-0.99999988079071045,0,0,0.99999988079071045,-1.1920928955078125E-7,0,0,2.5082993507385254,5.9021581364504527E-6,1]},{"mesh":1,"matrix":[1,0,0,0,0,-1.1920928955078125E-7,-0.99999988079071045,0,0,0.99999988079071045,-1.1920928955078125E-7,0,0,2.5082993507385254,5.9021581364504527E-6,1]},{"mesh":2,"matrix":[1,0,0,0,0,-1.1920928955078125E-7,-0.99999988079071045,0,0,0.99999988079071045,-1.1920928955078125E-7,0,0,2.5082993507385254,5.9021581364504527E-6,1]}],"meshes":[{"primitives":[{"attributes":{"POSITION":0,"COLOR_0":1},"mode":4,"indices":2}]},{"primitives":[{"attributes":{"POSITION":3},"mode":4,"indices":4,"material":0}]},{"primitives":[{"attributes":{"POSITION":5},"mode":4,"indices":6,"material":1}]}],"accessors":[{"bufferView":0,"byteOffset":0,"count":202,"componentType":5126,"type":"VEC3","min":[-204.68612670898437,-204.68597412109375,-545.649169921875],"max":[204.68612670898437,204.68598937988281,536.557861328125]},{"bufferView":1,"byteOffset":0,"count":202,"componentType":5121,"type":"VEC4","normalized":true},{"bufferView":2,"byteOffset":0,"count":1086,"componentType":5125,"type":"SCALAR"},{"bufferView":3,"byteOffset":0,"count":32,"componentType":5126,"type":"VEC3","min":[-171.12814331054687,-171.12802124023437,512.19793701171875],"max":[171.12812805175781,171.12803649902344,512.19793701171875]},{"bufferView":4,"byteOffset":0,"count":90,"componentType":5125,"type":"SCALAR"},{"bufferView":5,"byteOffset":0,"count":20,"componentType":5126,"type":"VEC3","min":[-38.268356323242188,-124.06561279296875,19.9224853515625],"max":[38.268356323242188,-92.387825012207031,143.0943603515625]},{"bufferView":6,"byteOffset":0,"count":84,"componentType":5125,"type":"SCALAR"}],"materials":[{"name":"Material.002","pbrMetallicRoughness":{"baseColorFactor":[0.800000011920929,0.800000011920929,0.800000011920929,1],"metallicFactor":0,"roughnessFactor":0.82111454010009766},"alphaMode":"OPAQUE"},{"name":"Material.003","pbrMetallicRoughness":{"baseColorFactor":[1,0,0,1],"metallicFactor":0,"roughnessFactor":0.95246118307113647},"alphaMode":"OPAQUE"}],"bufferViews":[{"buffer":0,"byteOffset":0,"byteLength":2424,"byteStride":12,"target":34962},{"buffer":0,"byteOffset":2424,"byteLength":808,"byteStride":4,"target":34962},{"buffer":0,"byteOffset":3232,"byteLength":4344,"target":34963},{"buffer":0,"byteOffset":7576,"byteLength":384,"byteStride":12,"target":34962},{"buffer":0,"byteOffset":7960,"byteLength":360,"target":34963},{"buffer":0,"byteOffset":8320,"byteLength":240,"byteStride":12,"target":34962},{"buffer":0,"byteOffset":8560,"byteLength":336,"target":34963}],"buffers":[{"byteLength":8896,"uri":"scene.bin"}]}